<?xml version="1.0" encoding="utf-8"?>
<!-- Svg Vector Icons : http://www.onlinewebfonts.com/icon -->
<!DOCTYPE svg PUBLIC "-//W3C//DTD SVG 1.1//EN" "http://www.w3.org/Graphics/SVG/1.1/DTD/svg11.dtd">
<svg version="1.1" xmlns="http://www.w3.org/2000/svg" xmlns:xlink="http://www.w3.org/1999/xlink" x="0px" y="0px" viewBox="0 0 1000 1000" enable-background="new 0 0 1000 1000" xml:space="preserve">
<metadata> Svg Vector Icons : http://www.onlinewebfonts.com/icon </metadata>
<g><g transform="translate(0.000000,511.000000) scale(0.100000,-0.100000)"><path d="M2185.5,2119.9c-386.8-84.2-700.7-245.1-989.9-507.4c-321.7-291-580.1-785-633.7-1208.1l-13.4-113l-178.1-9.6c-166.6-9.6-181.9-13.4-225.9-63.2c-59.4-68.9-59.4-149.3,0-218.3c44-49.8,59.3-53.6,225.9-63.2l178.1-9.6l13.4-112.9c40.2-321.7,214.4-719.9,430.8-988c281.5-350.4,649.1-583.9,1112.4-712.2c201-55.5,725.6-61.3,938.2-9.6c409.7,99.6,735.2,285.3,1022.4,584c88.1,91.9,191.5,216.4,231.7,277.6c168.5,252.7,298.7,601.2,331.2,878.8c15.3,132.1,59.3,208.7,157,273.8c139.8,91.9,338.9,82.3,463.4-23c80.4-67,91.9-93.8,126.3-287.2c53.6-315.9,162.8-593.5,329.3-844.3c101.5-157,367.6-427,526.5-536.1c392.5-270,792.7-382.9,1275.2-361.9c465.3,21.1,869.2,178.1,1229.2,480.6c363.8,306.3,645.2,813.7,702.7,1267.5l13.4,112.9l178,9.6c166.6,9.6,181.9,13.4,225.9,63.2c59.4,68.9,59.4,149.3,0,218.3c-44,49.8-59.3,53.6-225.9,63.2l-178,9.6l-13.4,113c-57.4,453.8-338.9,961.1-702.7,1267.5c-361.9,302.5-765.9,461.4-1231.1,480.6c-486.3,21.1-880.7-91.9-1273.2-361.9c-160.8-111-425-379.1-528.4-538c-114.9-174.2-237.4-446.1-283.4-635.7c-23-95.7-45.9-174.2-47.9-178.1c-1.9-3.8-42.1,13.4-88.1,36.4c-128.3,67-369.5,72.7-534.2,13.4l-126.4-46L4580.7,615c-46,187.6-166.6,461.4-283.4,637.6c-103.4,158.9-367.6,427-528.4,538c-254.6,174.2-528.4,289.1-811.8,338.9C2733.1,2167.8,2388.5,2164,2185.5,2119.9z M3052.8,1748.5c584-172.3,1030.1-628,1192.8-1217.7c49.8-176.1,49.8-666.3,0-842.4c-166.6-601.2-631.8-1064.5-1227.3-1229.2c-206.8-55.5-624.2-59.4-821.4-7.7C1567.1-1381.9,1101.8-918.6,939.1-302.1c-55.5,216.3-55.5,606.9,0,823.3c158.9,606.9,635.7,1085.6,1227.3,1234.9c206.8,51.7,233.6,55.5,488.2,47.9C2830.7,1798.3,2922.6,1786.8,3052.8,1748.5z M7824.1,1760c394.4-107.2,718-323.6,943.9-631.8c277.6-375.3,386.8-817.5,317.9-1277c-91.9-618.4-520.8-1135.4-1120.1-1346c-922.9-325.5-1928,201-2203.7,1156.4c-38.3,128.3-44,195.3-44,448s5.7,319.7,44,448c185.7,645.2,710.4,1116.2,1376.6,1236.8C7286.1,1821.2,7670.9,1802.1,7824.1,1760z"/><path d="M2329.1,1342.6c-404-86.2-760.1-392.5-911.4-781.2c-65.1-166.6-105.3-432.7-74.7-490.1c23-42.1,93.8-51.7,130.2-15.3c13.4,13.4,23,63.2,23,111c0,354.2,273.8,765.8,618.4,930.5c86.2,40.2,199.1,76.6,275.7,86.2c247,36.4,264.2,42.1,270,90C2675.7,1377.1,2583.7,1396.2,2329.1,1342.6z"/><path d="M7153.9,1344.5c-446.1-97.6-790.7-402.1-942-836.7c-63.2-178.1-72.8-428.9-21.1-463.3c65.1-40.2,97.6,7.7,122.5,181.9c42.1,292.9,162.8,522.7,363.8,704.6c178.1,157,442.3,270,639.5,270c135.9,0,216.3,82.3,149.3,149.3C7437.3,1379,7301.4,1377.1,7153.9,1344.5z"/></g></g>
</svg>